PathFileType	4	(X/Y/Z)	C:\Users\Basilio\Documents\Thesis Gigler\squatting_fais\c3dfiles\019\SJ_pre2\markers_experimental.trc
DataRate	CameraRate	NumFrames	NumMarkers	Units	OrigDataRate	OrigDataStartFrame	OrigNumFrames
200.000000	200.000000	4	59	mm	200.000000	319	1278
Frame#	Time	FHD			LBHD			RBHD			C7			T10			CLAV			LSHO			LUUPA			LMUPA			LDUPA			LLEP			LMEP			LRAD			LUL			LRFIN			RSHO			RUPA1			RMUPA			RDUPA			RLEP			RMEP			RRAD			RUL			RUFIN			LASI			RASI			USACR			LSACR			RSACR			LTHI1			LTHI2			LTHI3			LTHI4			LLFC			LTIB1			LTIB2			LTIB3			LTIB4			LLMAL			LMMAL			LHEE			LMT1			LMT2			LMT5			RTHI			RTHI2			RTHI3			RTHI4			RLFC			RTIB1			RTIB2			RTIB3			RTIB4			RLMAL			RMMAL			RHEE			RMT1			RMT2			RMT5			
		X1	Y1	Z1	X2	Y2	Z2	X3	Y3	Z3	X4	Y4	Z4	X5	Y5	Z5	X6	Y6	Z6	X7	Y7	Z7	X8	Y8	Z8	X9	Y9	Z9	X10	Y10	Z10	X11	Y11	Z11	X12	Y12	Z12	X13	Y13	Z13	X14	Y14	Z14	X15	Y15	Z15	X16	Y16	Z16	X17	Y17	Z17	X18	Y18	Z18	X19	Y19	Z19	X20	Y20	Z20	X21	Y21	Z21	X22	Y22	Z22	X23	Y23	Z23	X24	Y24	Z24	X25	Y25	Z25	X26	Y26	Z26	X27	Y27	Z27	X28	Y28	Z28	X29	Y29	Z29	X30	Y30	Z30	X31	Y31	Z31	X32	Y32	Z32	X33	Y33	Z33	X34	Y34	Z34	X35	Y35	Z35	X36	Y36	Z36	X37	Y37	Z37	X38	Y38	Z38	X39	Y39	Z39	X40	Y40	Z40	X41	Y41	Z41	X42	Y42	Z42	X43	Y43	Z43	X44	Y44	Z44	X45	Y45	Z45	X46	Y46	Z46	X47	Y47	Z47	X48	Y48	Z48	X49	Y49	Z49	X50	Y50	Z50	X51	Y51	Z51	X52	Y52	Z52	X53	Y53	Z53	X54	Y54	Z54	X55	Y55	Z55	X56	Y56	Z56	X57	Y57	Z57	X58	Y58	Z58	X59	Y59	Z59	

320	1.595	101.2539978027344	1017.878234863281	-845.318054199219	-30.43111038208009	1019.822143554688	-990.0736083984377	-36.28035736083985	1015.299011230469	-850.4802246093752	-113.384521484375	911.6005859375002	-917.7341308593752	-357.7453918457032	769.6588134765627	-926.7020263671877	-43.27909851074219	778.6251220703127	-914.3421630859377	-55.16989135742189	852.8179321289065	-1067.5400390625	-173.0901641845703	792.9222412109377	-1179.778564453125	-207.1044158935547	761.7256469726564	-1160.942749023438	-228.7476348876954	778.2163085937502	-1214.271606445313	-293.8294982910157	788.8467407226565	-1269.09423828125	-338.2825622558594	842.1209106445315	-1245.330078125	-465.0142822265626	656.7581787109376	-1130.607055664063	-461.249481201172	621.2769775390626	-1189.296630859375	-433.7070922851564	623.1669311523439	-1097.401733398438	-60.2389373779297	846.2911376953127	-771.129333496094	-202.6706848144532	853.0679931640627	-640.9462890625001	-217.4006500244141	801.505065917969	-636.6445312500001	-258.5947265625001	827.8864746093752	-599.7733154296876	-326.7190246582032	796.0430908203127	-571.8784790039064	-363.0142822265626	849.4537353515627	-599.8615112304689	-484.7432556152345	661.7467041015626	-727.1564331054689	-476.7952270507814	616.3756103515626	-677.1129760742189	-448.9768981933595	629.5844726562501	-768.253845214844	-414.2929992675782	576.0990600585939	-850.0040283203127	-446.1711730957032	519.3159179687501	-791.0076293945315	-485.9430541992189	699.1397705078126	-932.8018188476565	-515.6426391601564	682.3999633789064	-958.9136962890627	-514.8692016601564	681.3218383789064	-903.8257446289065	-401.4089965820314	485.8079833984376	-1166.59521484375	-320.4481201171876	501.6147766113282	-1189.639526367188	-302.1520385742188	541.5697021484376	-1170.844848632813	-276.1924133300782	460.7700805664064	-1202.29736328125	-197.333724975586	427.2994689941407	-1206.159790039063	-162.3050689697266	292.4072265625001	-1183.46875	-238.8277130126954	272.6510314941407	-1224.12353515625	-203.4647827148438	258.0428466796876	-1204.22998046875	-234.2908630371094	188.2137603759766	-1163.54248046875	-351.2724609375001	96.27359771728518	-1175.794067382813	-318.9422607421876	96.04490661621097	-1094.682373046875	-405.4282226562501	44.1018295288086	-1113.925048828125	-195.3935241699219	57.03170394897462	-1142.24609375	-200.9873809814454	58.32789611816408	-1182.212158203125	-251.2241973876954	34.28303146362305	-1226.942016601563	-463.6524047851564	531.0084838867189	-711.2334594726564	-402.5306701660157	548.9519042968751	-704.0150756835939	-392.0911560058595	565.7186889648439	-730.4876708984376	-343.0718688964844	507.3883056640626	-666.5269775390626	-211.4874420166016	427.854705810547	-643.7067871093751	-189.7534790039063	254.8550262451172	-689.4559936523439	-285.0150146484376	208.2611541748047	-656.7816772460939	-247.5634918212891	193.0271148681641	-680.9146118164064	-258.9259643554688	158.2183837890625	-726.5823364257814	-355.4332885742188	96.85957336425784	-699.6704101562501	-315.4205017089844	95.50351715087892	-771.4309692382815	-400.3525390625001	44.43914413452149	-766.0596923828126	-199.5095825195313	53.51577758789064	-706.3745727539064	-212.9997711181641	60.06150817871095	-662.7285156250001	-268.1839294433594	40.37525177001954	-626.7979125976564	
321	1.6	101.9003524780274	1014.742980957031	-845.1707153320315	-28.67127799987794	1016.507690429688	-989.8770141601565	-35.71767044067384	1012.131225585938	-850.3673095703127	-113.4453964233399	908.868835449219	-917.7833251953127	-357.6948547363282	767.6240234375001	-926.7669677734377	-42.86128616333009	775.6963500976565	-914.2722167968752	-54.74211502075197	850.046325683594	-1067.381103515625	-172.64306640625	790.4099731445315	-1179.640014648438	-206.8681030273438	759.1766357421876	-1160.858032226563	-229.4861602783204	775.7148437500002	-1213.142700195313	-293.1604919433594	787.0023193359377	-1269.076171875	-337.7536621093751	840.023864746094	-1245.173950195313	-464.9304199218751	655.0004882812501	-1130.6962890625	-461.4498596191407	619.6196289062501	-1189.2626953125	-434.6152343750001	621.7774658203126	-1096.943115234375	-59.88917160034181	843.5666503906252	-770.9194946289065	-202.2711181640626	850.640563964844	-640.8854980468751	-217.0391082763672	799.0151977539065	-636.5330810546876	-258.2963562011719	825.5950317382815	-599.6987304687501	-326.4368896484376	793.9473266601565	-571.9132690429689	-362.3089904785157	847.4544677734377	-599.7122802734376	-484.8185119628907	660.2391357421876	-727.3992309570314	-476.8343505859376	614.7695922851564	-677.3959350585939	-449.065155029297	627.9243774414064	-768.5725708007815	-413.7542419433595	575.2202758789064	-850.8280029296877	-444.7749328613282	518.3192749023439	-791.5174560546877	-486.2123413085939	697.3000488281251	-932.8027343750002	-515.7141113281251	680.3906250000001	-958.9855957031252	-514.8076171875001	679.4443359375001	-903.8037719726565	-401.3505859375001	484.5132751464845	-1166.727294921875	-320.5291442871094	500.7517089843751	-1189.823486328125	-302.3424682617188	540.7434692382814	-1170.99755859375	-276.1094970703126	460.1102600097657	-1202.57958984375	-196.7830047607422	426.8788146972657	-1206.363403320313	-162.5405426025391	292.5815429687501	-1182.841552734375	-238.6214752197266	272.3747863769532	-1224.313110351563	-203.2420501708985	257.8192138671876	-1204.421875	-234.1381072998047	188.11962890625	-1163.712280273438	-351.2539367675782	96.27777862548831	-1175.843627929688	-318.9850158691407	96.12199401855472	-1094.6650390625	-405.3432617187501	44.07647705078126	-1113.946166992188	-195.3290252685547	56.95678710937501	-1142.282592773438	-201.0231170654297	58.32653808593751	-1182.115478515625	-251.1745758056641	34.24789428710938	-1226.940063476563	-463.6428833007814	529.3151855468751	-711.2344970703126	-402.5448608398439	547.6539306640626	-704.4641113281251	-392.2864685058595	564.4434204101564	-730.7141723632814	-342.9468994140626	506.6139221191407	-666.5853271484376	-211.1702728271485	427.6354980468751	-643.6511230468751	-189.4932250976563	254.6021118164063	-689.4173583984376	-284.7646179199219	208.0485382080079	-656.6785278320314	-247.1591339111329	192.7520751953126	-680.8930053710939	-258.8577575683594	158.1629943847657	-726.6080932617189	-355.3792724609376	96.87312316894534	-699.6668090820314	-315.3570861816407	95.47180175781251	-771.4384765625002	-400.3769836425782	44.48442840576173	-766.0433959960939	-199.4994049072266	53.49020385742189	-706.4052734375001	-212.9646606445313	60.03881835937501	-662.6738891601564	-268.1441040039063	40.38311386108399	-626.8080444335939	
322	1.605	102.5039215087891	1011.665405273438	-844.9677734375002	-28.47221374511719	1013.707458496094	-989.7085571289065	-35.10076904296876	1009.088073730469	-850.1774902343752	-113.1454238891602	906.2337036132815	-917.623474121094	-357.3851928710938	765.6114501953126	-926.7252197265627	-42.5621452331543	772.8343505859377	-914.1146240234377	-54.09468841552736	847.246765136719	-1067.26513671875	-172.2868041992188	788.0014648437502	-1179.574462890625	-206.6888580322266	756.9671020507814	-1160.77392578125	-228.0450286865235	773.6819458007815	-1214.067993164063	-292.8766174316407	784.560974121094	-1268.8740234375	-337.3720397949219	838.143493652344	-1245.096069335938	-464.7991943359376	653.2819213867189	-1130.715087890625	-461.7073669433595	618.0293579101564	-1189.258666992188	-434.5180969238282	619.9668579101564	-1097.314697265625	-59.41462326049806	840.6663208007815	-770.7185668945315	-201.8037414550782	848.284851074219	-640.7868041992189	-216.7746582031251	796.7310791015627	-636.5054931640626	-257.8625183105469	823.3568115234377	-599.6301879882814	-326.2588500976563	791.848083496094	-571.8289794921876	-362.1196594238282	845.5302734375002	-599.7527465820314	-484.7861328125001	658.5708007812501	-727.4572753906251	-476.9773864746095	613.0922241210939	-677.5164794921876	-448.9927673339845	626.2704467773439	-768.6849365234377	-415.3691406250001	571.3276367187501	-853.9215087890627	-446.2980041503907	514.4133300781251	-794.6024169921877	-486.1333923339845	695.2744140625001	-932.8951416015627	-516.6775512695314	678.8888549804689	-959.0618896484377	-514.9851074218751	677.5052490234376	-903.9671630859377	-401.2543029785157	483.1604919433595	-1166.893310546875	-320.5305175781251	499.8898010253907	-1189.989379882813	-302.5286865234376	539.9753417968751	-1171.112915039063	-275.9985656738282	459.4160156250001	-1202.91064453125	-196.309310913086	426.4270629882814	-1206.595703125	-162.2380676269532	291.9636230468751	-1183.812133789063	-238.3716735839844	272.1620483398438	-1224.486450195313	-203.0723419189454	257.5666198730469	-1204.564086914063	-233.9486389160157	187.9015197753907	-1163.776245117188	-351.2078247070313	96.25096130371097	-1175.868530273438	-318.8777160644532	96.09094238281253	-1094.718383789063	-405.3493041992189	44.14620971679688	-1113.868286132813	-195.2797393798829	56.89705276489259	-1142.2724609375	-201.060287475586	58.28212738037111	-1182.152099609375	-251.2644653320313	34.29428482055665	-1226.967407226563	-463.6654357910157	527.9346923828126	-711.4472656250001	-402.5386962890626	546.3703613281251	-704.5814819335939	-392.4216308593751	563.1774291992189	-730.8890991210939	-342.8337707519532	505.8617248535157	-666.7468261718751	-210.8515930175782	427.3484497070314	-643.5137329101564	-189.3140106201172	254.6044311523438	-689.4491577148439	-284.4281005859376	207.9045867919922	-656.6651611328126	-246.9801940917969	192.6536254882813	-680.8977050781251	-258.7190856933594	158.119125366211	-726.6121826171876	-355.3847045898438	96.8884201049805	-699.6615600585939	-315.3196411132813	95.47011566162111	-771.4916992187502	-400.436737060547	44.61925888061524	-766.0114746093751	-199.4884033203126	53.48986434936525	-706.4041137695314	-212.9001159667969	60.02770996093751	-662.8070678710939	-268.2681579589844	40.45838928222657	-626.8728027343751	
323	1.61	103.1032257080078	1008.836791992188	-844.7205810546877	-28.21935081481934	1010.866760253906	-989.7574462890627	-34.54378128051759	1006.06298828125	-850.0747070312502	-111.7809829711914	903.6211547851565	-917.2427978515627	-357.2873840332032	763.5969238281251	-926.7353515625002	-42.5848617553711	770.1541137695315	-914.0673828125002	-53.5407180786133	844.4885864257815	-1067.140502929688	-171.931137084961	785.5748291015627	-1179.454345703125	-206.3480987548829	754.6568603515626	-1160.63037109375	-228.8789215087891	771.163269042969	-1212.97412109375	-292.5258178710938	782.916931152344	-1268.749145507813	-336.8938598632813	836.1868896484377	-1244.983032226563	-464.8719482421876	651.6398925781251	-1130.82763671875	-461.865447998047	616.4227905273439	-1189.276611328125	-434.2228088378907	618.4642333984376	-1097.393798828125	-59.00826644897462	837.7709960937502	-770.3037109375002	-201.4139862060547	845.964050292969	-640.7528686523439	-216.4604187011719	794.4354248046877	-636.3817749023439	-257.4925231933594	821.1643066406252	-599.5905761718751	-325.8439331054688	789.819519042969	-571.6899414062501	-361.4533691406251	843.559509277344	-599.5744018554689	-484.8612670898439	657.0595092773439	-727.7048339843751	-477.065399169922	611.6335449218751	-677.8709106445314	-449.221405029297	624.7817382812501	-769.0227050781252	-415.1351623535157	570.2169799804689	-854.3789672851565	-445.5465393066407	513.2593383789064	-794.8592529296877	-486.1234436035157	693.3098754882814	-932.9998168945315	-516.4077758789064	676.7603149414064	-959.1514892578127	-514.9199218750001	675.4849853515626	-904.092956542969	-401.1411437988282	481.9237365722657	-1167.007446289063	-320.5450439453126	499.0194702148439	-1190.135986328125	-302.6813049316407	539.1931762695314	-1171.238647460938	-275.6236572265626	458.7073669433595	-1203.08203125	-196.0207824707032	426.1977844238282	-1206.880615234375	-162.0478057861328	291.7662658691407	-1184.025146484375	-238.2303924560547	271.9791564941407	-1224.75048828125	-202.7795562744141	257.3304748535157	-1204.731201171875	-233.9145507812501	187.7531127929688	-1163.877197265625	-351.1378784179688	96.18375396728518	-1175.861450195313	-318.9177551269532	96.18842315673831	-1094.72119140625	-405.3465881347657	44.2232780456543	-1113.891235351563	-195.3298950195313	56.97670364379884	-1142.281494140625	-200.9829864501954	58.27927398681642	-1182.138427734375	-251.1926879882813	34.22888183593751	-1226.975952148438	-463.5751953125001	526.2705688476564	-711.4354248046876	-402.5303955078126	544.9618530273439	-704.8098754882814	-392.6804504394532	562.0572509765626	-731.1224365234376	-344.2167358398438	501.1161193847657	-667.8676757812501	-210.3816680908204	427.0369567871095	-643.3605346679689	-189.0501098632813	254.4082794189454	-689.4474487304689	-284.2650756835938	207.8341674804688	-656.6442260742189	-246.4917907714844	192.1762237548829	-680.9370727539064	-258.6583557128907	157.9955444335938	-726.6887817382814	-355.2409057617188	96.92334747314456	-699.6639404296876	-315.3352355957032	95.48666381835939	-771.5064086914065	-400.3542785644532	44.57657623291016	-766.0532836914064	-199.4583740234376	53.4815139770508	-706.3931884765626	-212.9093017578126	60.04479598999025	-662.7907104492189	-268.1975708007813	40.43952178955079	-626.8348999023439	
